<svg width="114" height="52" viewBox="0 0 114 52" fill="none" xmlns="http://www.w3.org/2000/svg">
<path d="M12.5651 21.207H10.8799V11.3185H17.3422V12.8784H12.5651V15.4132H17.1054V16.9731H12.5651V21.207ZM20.4219 21.207H18.7646V10.7614H20.4219V21.207ZM25.6962 21.3742C24.582 21.3742 23.6767 21.0074 22.9803 20.2739C22.2932 19.5404 21.9497 18.649 21.9497 17.5998C21.9497 16.5506 22.2932 15.6593 22.9803 14.9257C23.6767 14.1829 24.582 13.8115 25.6962 13.8115C26.8197 13.8115 27.725 14.1829 28.412 14.9257C29.1084 15.6593 29.4566 16.5506 29.4566 17.5998C29.4566 18.649 29.1084 19.5404 28.412 20.2739C27.725 21.0074 26.8197 21.3742 25.6962 21.3742ZM23.6071 17.5998C23.6071 18.2869 23.8021 18.844 24.192 19.2711C24.5913 19.6982 25.0927 19.9118 25.6962 19.9118C26.309 19.9118 26.8104 19.6982 27.2004 19.2711C27.5996 18.844 27.7992 18.2869 27.7992 17.5998C27.7992 16.9034 27.5996 16.3417 27.2004 15.9146C26.8104 15.4875 26.309 15.2739 25.6962 15.2739C25.0927 15.2739 24.5913 15.4875 24.192 15.9146C23.8021 16.3417 23.6071 16.9034 23.6071 17.5998ZM34.8916 13.923V15.4689C34.7616 15.4503 34.6362 15.4411 34.5155 15.4411C33.2713 15.4411 32.6493 16.1096 32.6493 17.4466V21.207H30.9919V13.9787H32.5239V14.9815C32.9324 14.2665 33.6427 13.909 34.6548 13.909L34.8916 13.923ZM36.9279 12.767C36.6215 12.767 36.3708 12.6741 36.1758 12.4884C35.9809 12.2935 35.8834 12.0474 35.8834 11.7503C35.8834 11.4439 35.9809 11.1932 36.1758 10.9982C36.3708 10.8032 36.6215 10.7057 36.9279 10.7057C37.225 10.7057 37.4711 10.8032 37.6661 10.9982C37.8611 11.1932 37.9586 11.4439 37.9586 11.7503C37.9586 12.0474 37.8611 12.2935 37.6661 12.4884C37.4711 12.6741 37.225 12.767 36.9279 12.767ZM36.0923 21.207V13.9787H37.7496V21.207H36.0923ZM44.932 14.9257V10.7614H46.5893V21.207H45.0573V20.1764C44.5652 20.9749 43.7528 21.3742 42.62 21.3742C41.5894 21.3742 40.7723 21.0167 40.1688 20.3017C39.5745 19.5775 39.2774 18.6769 39.2774 17.5998C39.2774 16.5228 39.5745 15.6221 40.1688 14.8979C40.7723 14.1737 41.5894 13.8115 42.62 13.8115C43.6692 13.8115 44.4399 14.1829 44.932 14.9257ZM45.0016 17.5998C45.0016 16.922 44.8159 16.3649 44.4445 15.9285C44.0824 15.4921 43.5903 15.2739 42.9682 15.2739C42.3554 15.2739 41.8633 15.4921 41.4919 15.9285C41.1205 16.3649 40.9348 16.922 40.9348 17.5998C40.9348 18.2591 41.1205 18.8115 41.4919 19.2572C41.8633 19.6936 42.3554 19.9118 42.9682 19.9118C43.5903 19.9118 44.0824 19.6936 44.4445 19.2572C44.8159 18.8208 45.0016 18.2683 45.0016 17.5998ZM53.062 17.8087L51.14 18.1012C50.2394 18.2405 49.7891 18.584 49.7891 19.1318C49.7891 19.7632 50.2162 20.0789 51.0704 20.0789C51.7111 20.0789 52.2032 19.9071 52.5467 19.5636C52.8902 19.22 53.062 18.7883 53.062 18.2683V17.8087ZM50.7361 21.3742C49.8819 21.3742 49.2459 21.1745 48.8281 20.7753C48.4102 20.376 48.2013 19.8468 48.2013 19.1875C48.2013 17.9248 49.1252 17.1634 50.9729 16.9034L53.062 16.611V16.4995C53.062 15.6175 52.5467 15.1764 51.5161 15.1764C50.6154 15.1764 50.1048 15.5339 49.984 16.2489H48.3685C48.4427 15.5432 48.7352 14.9629 49.2459 14.5079C49.7659 14.0437 50.5365 13.8115 51.5579 13.8115C52.5885 13.8115 53.3638 14.0483 53.8837 14.5218C54.413 14.9954 54.6776 15.6593 54.6776 16.5135V19.8421C54.6776 20.4271 54.7472 20.8821 54.8865 21.207H53.3127C53.3034 21.207 53.2895 21.1745 53.2709 21.1095C53.2616 21.0353 53.2477 20.9192 53.2291 20.7614C53.2199 20.6035 53.2152 20.4364 53.2152 20.26C52.7231 21.0028 51.8968 21.3742 50.7361 21.3742ZM18.8185 38.207H16.8408L14.8353 34.3073H12.5651V38.207H10.8799V28.3185H15.2252C16.2837 28.3185 17.0915 28.5924 17.6486 29.1403C18.2057 29.6881 18.4843 30.4123 18.4843 31.3129C18.4843 31.9907 18.3218 32.5757 17.9968 33.0678C17.6718 33.5506 17.189 33.8942 16.5483 34.0984L18.8185 38.207ZM16.3951 32.3575C16.6551 32.0975 16.7851 31.7493 16.7851 31.3129C16.7851 30.8765 16.6551 30.5284 16.3951 30.2684C16.1352 30.0084 15.7498 29.8784 15.2392 29.8784H12.5651V32.7475H15.2392C15.7498 32.7475 16.1352 32.6175 16.3951 32.3575ZM26.7412 35.0734H21.2398C21.3048 35.649 21.5137 36.1086 21.8666 36.4522C22.2194 36.7864 22.6836 36.9536 23.2593 36.9536C23.64 36.9536 23.9835 36.8607 24.2899 36.675C24.5964 36.4893 24.8145 36.2386 24.9445 35.9229H26.6158C26.393 36.6564 25.9752 37.2507 25.3624 37.7056C24.7588 38.1513 24.0439 38.3742 23.2175 38.3742C22.1405 38.3742 21.2677 38.0167 20.5992 37.3017C19.9399 36.5868 19.6103 35.6815 19.6103 34.5859C19.6103 33.5181 19.9446 32.6221 20.6131 31.8979C21.2816 31.1737 22.1451 30.8115 23.2036 30.8115C24.2621 30.8115 25.1163 31.169 25.7663 31.884C26.4255 32.5896 26.7551 33.481 26.7551 34.558L26.7412 35.0734ZM23.2036 32.1625C22.6836 32.1625 22.2519 32.3157 21.9084 32.6221C21.5648 32.9285 21.3513 33.3371 21.2677 33.8477H25.1117C25.0374 33.3371 24.8331 32.9285 24.4989 32.6221C24.1646 32.3157 23.7328 32.1625 23.2036 32.1625ZM30.7508 38.3742C29.7573 38.3742 29.0098 38.142 28.5084 37.6778C28.0071 37.2135 27.7331 36.6193 27.6867 35.8951H29.2884C29.307 36.2293 29.4509 36.4986 29.7201 36.7029C29.9894 36.9071 30.3654 37.0093 30.8483 37.0093C31.2754 37.0093 31.605 36.935 31.8371 36.7864C32.0692 36.6379 32.1853 36.4382 32.1853 36.1875C32.1853 35.909 32.0414 35.7047 31.7535 35.5747C31.475 35.4355 31.1314 35.3333 30.7229 35.2683C30.3144 35.2033 29.9058 35.1198 29.4973 35.0176C29.0888 34.9062 28.7406 34.6927 28.4527 34.377C28.1742 34.0613 28.0349 33.6295 28.0349 33.0817C28.0349 32.4503 28.2949 31.9165 28.8148 31.4801C29.3441 31.0344 30.0405 30.8115 30.904 30.8115C31.3961 30.8115 31.8278 30.8905 32.1992 31.0483C32.5799 31.1969 32.8724 31.3965 33.0767 31.6472C33.2902 31.8979 33.4481 32.1532 33.5502 32.4132C33.6616 32.6732 33.7266 32.9378 33.7452 33.2071H32.1574C32.1296 32.9192 32.0042 32.6732 31.7814 32.4689C31.5678 32.2646 31.2614 32.1625 30.8622 32.1625C30.4629 32.1625 30.1565 32.2414 29.943 32.3993C29.7294 32.5478 29.6226 32.7568 29.6226 33.026C29.6226 33.2767 29.7619 33.4671 30.0405 33.597C30.3283 33.727 30.6765 33.8245 31.085 33.8895C31.4936 33.9545 31.9021 34.0474 32.3106 34.1681C32.7192 34.2795 33.0627 34.4977 33.3413 34.8227C33.6291 35.1476 33.773 35.5794 33.773 36.1179C33.773 36.7679 33.5084 37.3064 32.9792 37.7335C32.4592 38.1606 31.7164 38.3742 30.7508 38.3742ZM38.5356 38.3742C37.4214 38.3742 36.5161 38.0074 35.8197 37.2739C35.1326 36.5404 34.7891 35.649 34.7891 34.5998C34.7891 33.5506 35.1326 32.6593 35.8197 31.9257C36.5161 31.1829 37.4214 30.8115 38.5356 30.8115C39.659 30.8115 40.5643 31.1829 41.2514 31.9257C41.9478 32.6593 42.296 33.5506 42.296 34.5998C42.296 35.649 41.9478 36.5404 41.2514 37.2739C40.5643 38.0074 39.659 38.3742 38.5356 38.3742ZM36.4464 34.5998C36.4464 35.2869 36.6414 35.844 37.0314 36.2711C37.4307 36.6982 37.932 36.9118 38.5356 36.9118C39.1484 36.9118 39.6498 36.6982 40.0397 36.2711C40.439 35.844 40.6386 35.2869 40.6386 34.5998C40.6386 33.9034 40.439 33.3417 40.0397 32.9146C39.6498 32.4875 39.1484 32.2739 38.5356 32.2739C37.932 32.2739 37.4307 32.4875 37.0314 32.9146C36.6414 33.3417 36.4464 33.9034 36.4464 34.5998ZM48.497 35.143V30.9787H50.1543V38.207H48.6223V37.2739C48.4552 37.5896 48.1813 37.8542 47.8006 38.0678C47.4292 38.272 46.9696 38.3742 46.4218 38.3742C45.5676 38.3742 44.9083 38.1188 44.4441 37.6082C43.9891 37.0882 43.7616 36.3965 43.7616 35.533V30.9787H45.419V35.3101C45.419 36.4057 45.8879 36.9536 46.8257 36.9536C47.3456 36.9536 47.7542 36.8004 48.0513 36.494C48.3484 36.1783 48.497 35.7279 48.497 35.143ZM56.0548 30.923V32.4689C55.9248 32.4503 55.7995 32.4411 55.6787 32.4411C54.4346 32.4411 53.8125 33.1096 53.8125 34.4466V38.207H52.1551V30.9787H53.6871V31.9815C54.0957 31.2665 54.806 30.909 55.818 30.909L56.0548 30.923ZM56.4691 34.5998C56.4691 33.532 56.808 32.636 57.4858 31.9118C58.1636 31.1783 59.0271 30.8115 60.0763 30.8115C61.0698 30.8115 61.8591 31.0947 62.444 31.6611C63.0383 32.2182 63.3911 32.8635 63.5025 33.597H61.8033C61.7012 33.1978 61.4923 32.8775 61.1766 32.636C60.8702 32.3946 60.4988 32.2739 60.0624 32.2739C59.4775 32.2739 59.0086 32.4921 58.6557 32.9285C58.3029 33.3556 58.1265 33.9127 58.1265 34.5998C58.1265 35.2869 58.3029 35.844 58.6557 36.2711C59.0086 36.6982 59.4775 36.9118 60.0624 36.9118C60.4988 36.9118 60.8702 36.7911 61.1766 36.5497C61.4923 36.3083 61.7012 35.9879 61.8033 35.5887H63.5025C63.3911 36.3222 63.0383 36.9721 62.444 37.5385C61.8591 38.0956 61.0698 38.3742 60.0763 38.3742C59.0271 38.3742 58.1636 38.012 57.4858 37.2878C56.808 36.5543 56.4691 35.6583 56.4691 34.5998ZM71.4886 35.0734H65.9872C66.0522 35.649 66.2612 36.1086 66.614 36.4522C66.9668 36.7864 67.4311 36.9536 68.0067 36.9536C68.3874 36.9536 68.731 36.8607 69.0374 36.675C69.3438 36.4893 69.562 36.2386 69.692 35.9229H71.3632C71.1404 36.6564 70.7226 37.2507 70.1098 37.7056C69.5063 38.1513 68.7913 38.3742 67.9649 38.3742C66.8879 38.3742 66.0151 38.0167 65.3466 37.3017C64.6874 36.5868 64.3577 35.6815 64.3577 34.5859C64.3577 33.5181 64.692 32.6221 65.3605 31.8979C66.029 31.1737 66.8925 30.8115 67.951 30.8115C69.0095 30.8115 69.8637 31.169 70.5137 31.884C71.1729 32.5896 71.5025 33.481 71.5025 34.558L71.4886 35.0734ZM67.951 32.1625C67.4311 32.1625 66.9993 32.3157 66.6558 32.6221C66.3122 32.9285 66.0987 33.3371 66.0151 33.8477H69.8591C69.7848 33.3371 69.5805 32.9285 69.2463 32.6221C68.912 32.3157 68.4803 32.1625 67.951 32.1625ZM78.35 28.3185L81.4698 32.4132L84.6035 28.3185H86.1494V38.207H84.4921V30.9787L81.4976 34.8505H81.4419L78.4615 30.9787V38.207H76.8041V28.3185H78.35ZM92.777 34.8087L90.8551 35.1012C89.9544 35.2405 89.5041 35.584 89.5041 36.1318C89.5041 36.7632 89.9312 37.0789 90.7854 37.0789C91.4261 37.0789 91.9182 36.9071 92.2617 36.5636C92.6053 36.22 92.777 35.7883 92.777 35.2683V34.8087ZM90.4512 38.3742C89.5969 38.3742 88.9609 38.1745 88.5431 37.7753C88.1253 37.376 87.9164 36.8468 87.9164 36.1875C87.9164 34.9248 88.8402 34.1634 90.6879 33.9034L92.777 33.611V33.4995C92.777 32.6175 92.2617 32.1764 91.2311 32.1764C90.3305 32.1764 89.8198 32.5339 89.6991 33.2489H88.0835C88.1578 32.5432 88.4502 31.9629 88.9609 31.5079C89.4809 31.0437 90.2515 30.8115 91.2729 30.8115C92.3035 30.8115 93.0788 31.0483 93.5988 31.5218C94.128 31.9954 94.3926 32.6593 94.3926 33.5135V36.8421C94.3926 37.4271 94.4623 37.8821 94.6015 38.207H93.0277C93.0185 38.207 93.0045 38.1745 92.986 38.1095C92.9767 38.0353 92.9627 37.9192 92.9442 37.7614C92.9349 37.6035 92.9302 37.4364 92.9302 37.26C92.4381 38.0028 91.6118 38.3742 90.4512 38.3742ZM98.0158 37.26V41.1039H96.3585V30.9787H97.8905V32.0093C98.4012 31.2108 99.2136 30.8115 100.328 30.8115C101.368 30.8115 102.185 31.1737 102.779 31.8979C103.383 32.6221 103.684 33.5228 103.684 34.5998C103.684 35.6769 103.383 36.5775 102.779 37.3017C102.185 38.0167 101.368 38.3742 100.328 38.3742C99.2693 38.3742 98.4987 38.0028 98.0158 37.26ZM97.9601 34.5998C97.9601 35.2683 98.1412 35.8208 98.5033 36.2572C98.8747 36.6936 99.3714 36.9118 99.9935 36.9118C100.606 36.9118 101.098 36.6936 101.47 36.2572C101.841 35.8115 102.027 35.2591 102.027 34.5998C102.027 33.922 101.841 33.3603 101.47 32.9146C101.098 32.4689 100.606 32.2461 99.9935 32.2461C99.3714 32.2461 98.8747 32.4689 98.5033 32.9146C98.1412 33.351 97.9601 33.9127 97.9601 34.5998Z" fill="#1C77FF"/>
<path d="M12 2L2 2L2 50L12 50" stroke="#1C77FF" stroke-width="2.23834"/>
<path d="M102 50L112 50L112 2L102 2" stroke="#1C77FF" stroke-width="2.23834"/>
</svg>
